<svg width="341" height="204" viewBox="0 0 341 204" fill="none" xmlns="http://www.w3.org/2000/svg">
<path d="M339.511 28.5446C339.288 28.7992 339.07 29.0328 338.867 29.2928C325.864 47.8914 312.887 66.4745 299.883 85.0731C299.771 85.2449 299.659 85.4168 299.531 85.5622C298.577 86.8106 297.455 86.8974 296.389 85.7464C293.892 83.0363 291.421 80.3107 288.93 77.5797C286.35 74.7584 283.765 71.958 281.216 69.1004C280.696 68.5172 280.314 68.3501 279.522 68.6348C272.612 71.0529 265.65 73.4126 258.725 75.8042C256.878 76.4388 255.882 75.5301 256.07 73.6118C256.464 69.6231 256.746 65.628 257.056 61.6174C257.45 56.5111 257.802 51.3938 258.238 46.2985C258.293 45.575 258.098 45.1215 257.592 44.6539C250.041 37.7822 242.517 30.895 234.986 24.0288C234.788 23.8428 234.59 23.6569 234.392 23.471C233.799 22.9131 233.553 22.2229 233.866 21.4552C234.2 20.6929 234.824 20.3643 235.665 20.4055C238.252 20.5455 240.864 20.6701 243.456 20.7891C262.318 21.7884 281.181 22.7877 300.048 23.766C312.497 24.429 324.951 25.071 337.405 25.7131C338.577 25.7738 339.404 26.2136 339.781 27.3409C339.719 27.7495 339.615 28.147 339.511 28.5446ZM297.747 82.0995C309.57 65.1822 321.325 48.3585 333.058 31.5294C333.006 31.4711 332.975 31.4183 332.923 31.3599C312.992 39.2477 293.087 47.12 273.055 55.0486C281.336 64.1011 289.487 73.0524 297.747 82.0995ZM240.261 24.0896C240.709 24.5198 240.933 24.7794 241.188 25.0028C247.395 30.6731 253.622 36.349 259.802 42.0348C260.401 42.5717 260.905 42.7034 261.691 42.5288C282.271 37.9858 302.868 33.4692 323.449 28.9262C323.76 28.8511 324.077 28.755 324.388 28.6799C324.378 28.6326 324.373 28.5643 324.363 28.5169C296.433 27.0458 268.523 25.5802 240.261 24.0896ZM316.125 34.2989C316.115 34.2516 316.105 34.2042 316.079 34.1305C315.774 34.1847 315.447 34.2334 315.141 34.2876C297.681 38.1267 280.221 41.9658 262.767 45.784C261.913 45.9631 261.72 46.3597 261.654 47.125C261.285 52.305 260.875 57.4741 260.459 62.6641C260.35 64.0219 260.262 65.3852 260.169 66.7694C260.498 66.5423 260.674 66.2977 260.829 66.0476C263.268 62.1245 265.706 58.2014 268.124 54.2729C268.664 53.4081 269.333 52.8228 270.31 52.4301C283.735 47.1329 297.144 41.8093 310.574 36.4913C312.423 35.7675 314.276 35.0227 316.125 34.2989ZM262.053 70.7947C262.105 70.8531 262.157 70.9114 262.23 70.9752C267.43 69.1828 272.65 67.396 277.97 65.5683C275.375 62.7206 272.92 60.0214 270.392 57.2585C267.552 61.8591 264.792 66.3242 262.053 70.7947Z" fill="black"/>
<path d="M171.041 36.0008C172.815 36.806 174.176 37.1725 175.177 37.9717C175.749 38.4315 175.746 39.6296 175.996 40.491C175.13 40.7192 174.053 41.3988 173.425 41.1106C170.857 39.9427 168.299 39.4491 165.48 39.7556C164.809 39.8283 164.015 38.8349 163.278 38.3321C163.798 37.6101 164.251 36.3538 164.85 36.273C167.061 35.9623 169.323 36.0476 171.041 36.0008Z" fill="black"/>
<path d="M184.316 73.4495C184.131 74.1557 184.145 75.0485 183.708 75.5337C183.168 76.1366 182.22 76.7569 181.515 76.6862C181.002 76.6345 180.139 75.4269 180.221 74.8384C180.637 71.5467 181.207 68.2639 181.96 65.0292C182.092 64.4437 183.425 63.6553 184.011 63.7878C184.625 63.9279 185.459 65.0867 185.428 65.7606C185.278 68.347 184.816 70.9033 184.463 73.4778C184.415 73.4651 184.364 73.4621 184.316 73.4495Z" fill="black"/>
<path d="M171.647 86.8701C168.745 84.2505 166.011 81.8608 163.412 79.31C163.09 78.9984 163.276 77.5791 163.687 77.2319C164.189 76.8153 165.469 76.6231 165.926 76.97C168.577 78.966 171.13 81.1015 173.587 83.3258C174.012 83.716 174.174 84.916 173.891 85.4417C173.582 86.0326 172.626 86.289 171.647 86.8701Z" fill="black"/>
<path d="M180.678 84.5502C178.386 87.6202 176.312 90.5301 174.051 93.2875C173.746 93.6625 172.253 93.5614 171.782 93.1488C171.337 92.7534 171.155 91.4344 171.489 90.9117C173.211 88.1581 175.062 85.469 177.038 82.8952C177.414 82.4045 178.659 82.1512 179.258 82.3906C179.845 82.6371 180.117 83.6491 180.678 84.5502Z" fill="black"/>
<path d="M150.768 107.859C150.1 108.398 149.618 108.975 148.997 109.257C146.325 110.46 143.623 111.582 140.926 112.727C139.717 113.238 138.636 113.141 138.11 111.794C137.579 110.425 138.409 109.702 139.584 109.203C142.223 108.084 144.824 106.873 147.496 105.866C148.195 105.605 149.195 105.732 149.888 106.048C150.322 106.244 150.441 107.133 150.768 107.859Z" fill="black"/>
<path d="M133.787 115.167C133.119 115.705 132.638 116.282 132.016 116.564C129.345 117.767 126.643 118.89 123.945 120.035C122.736 120.545 121.656 120.449 121.129 119.102C120.599 117.733 121.429 117.009 122.603 116.51C125.242 115.392 127.843 114.181 130.515 113.174C131.214 112.912 132.215 113.04 132.907 113.355C133.342 113.552 133.461 114.441 133.787 115.167Z" fill="black"/>
<path d="M185.155 56.7275C184.808 56.9469 184.18 57.6507 183.683 57.5726C182.969 57.4581 181.969 56.8966 181.764 56.2953C180.727 53.3055 179.829 50.259 179.084 47.1802C178.938 46.5528 179.462 45.3773 180.016 45.0777C180.543 44.8021 182.053 45.1557 182.187 45.5525C183.338 48.9753 184.285 52.4686 185.278 55.943C185.32 56.0575 185.25 56.2047 185.155 56.7275Z" fill="black"/>
<path d="M152.75 47.8887C153.663 46.0601 154.503 44.1919 155.507 42.4079C156.091 41.3616 157.136 40.9219 158.219 41.6807C159.233 42.3903 159.147 43.3086 158.664 44.4846C157.675 46.8411 156.89 49.292 156.164 51.7484C155.807 52.9573 155.643 54.2168 154.008 54.0267C152.414 53.8372 152.24 52.6444 152.417 51.3365C152.565 50.2176 152.751 49.1087 152.919 47.9948C152.856 47.9577 152.803 47.9232 152.75 47.8887Z" fill="black"/>
<path d="M156.609 104.881C156.291 104.436 155.656 103.939 155.638 103.417C155.615 102.791 155.941 101.863 156.422 101.565C159.169 99.8344 161.962 98.167 164.853 96.6801C165.414 96.3927 166.724 96.7975 167.174 97.3287C167.514 97.7278 167.32 99.2586 166.883 99.5473C163.996 101.417 160.982 103.099 157.982 104.806C157.689 104.977 157.225 104.856 156.609 104.881Z" fill="black"/>
<path d="M161.131 71.3538C160.696 71.674 160.209 72.3115 159.685 72.3397C159.056 72.3717 158.046 72.0454 157.825 71.5846C156.355 68.4712 154.971 65.3079 153.757 62.0857C153.58 61.6157 154.354 60.2779 154.881 60.1575C155.552 60.0023 156.838 60.4626 157.113 61.0308C158.554 63.9401 159.77 66.9561 161.03 69.9628C161.179 70.3016 161.097 70.7349 161.131 71.3538Z" fill="black"/>
<path d="M199.081 90.6979C198.799 90.314 198.128 89.7973 198.143 89.3051C198.167 88.619 198.518 87.6356 199.055 87.3213C201.796 85.6921 204.592 84.1702 207.467 82.7826C208.035 82.5074 209.289 82.7733 209.674 83.2359C210.057 83.7082 210.038 85.2433 209.682 85.4602C206.566 87.3327 203.344 89.0222 200.136 90.736C199.928 90.8575 199.609 90.7327 199.081 90.6979Z" fill="black"/>
<path d="M183.75 91.5351C182.657 91.2491 181.423 91.1848 180.52 90.6074C179.874 90.1904 179.297 89.0369 179.395 88.3079C179.463 87.809 180.808 87.0547 181.486 87.1494C184.557 87.5806 187.624 88.1864 190.63 88.942C191.281 89.1019 192.164 90.1908 192.119 90.7991C192.071 91.4171 191.021 92.4656 190.415 92.4517C188.179 92.425 185.942 92.0465 183.711 91.8039C183.724 91.7143 183.737 91.6247 183.75 91.5351Z" fill="black"/>
<path d="M220.163 75.9575C221.603 76.417 222.12 78.1545 221.036 79.0183C219.598 80.1717 218 81.1803 216.347 82.0088C215.837 82.2579 214.665 81.9201 214.279 81.4575C213.903 80.9974 213.85 79.6192 214.198 79.3586C215.876 78.0816 217.721 77.0345 219.527 75.936C219.71 75.8289 220.051 75.949 220.163 75.9575Z" fill="black"/>
<path d="M229.916 69.7508C231.375 70.149 231.965 71.863 230.919 72.7719C229.53 73.9851 227.977 75.0604 226.36 75.9581C225.862 76.2286 224.676 75.9407 224.271 75.4948C223.876 75.051 223.765 73.6763 224.101 73.4012C225.723 72.0544 227.522 70.9301 229.281 69.7562C229.459 69.6414 229.805 69.747 229.916 69.7508Z" fill="black"/>
<path d="M238.53 62.4407C240.011 62.7466 240.708 64.4201 239.721 65.3929C238.411 66.691 236.928 67.8616 235.371 68.8591C234.89 69.1603 233.688 68.9474 233.257 68.5278C232.835 68.1097 232.637 66.7446 232.955 66.449C234.49 65.003 236.215 63.7681 237.896 62.486C238.067 62.3603 238.419 62.444 238.53 62.4407Z" fill="black"/>
<path d="M82.3687 199.197C80.3349 198.356 78.7851 197.97 77.623 197.138C76.9581 196.659 76.9087 195.418 76.5888 194.525C77.554 194.292 78.737 193.593 79.4565 193.894C82.4008 195.115 85.3042 195.637 88.4661 195.332C89.2178 195.259 90.1567 196.292 91.0088 196.816C90.4555 197.561 90.0013 198.861 89.3291 198.942C86.853 199.254 84.3014 199.156 82.3687 199.197Z" fill="black"/>
<path d="M65.7575 160.349C65.9342 159.618 65.8783 158.693 66.349 158.193C66.9307 157.571 67.9708 156.932 68.768 157.008C69.3489 157.064 70.3738 158.319 70.308 158.928C69.9846 162.336 69.4889 165.734 68.784 169.081C68.6607 169.687 67.1944 170.498 66.529 170.358C65.8306 170.211 64.84 169.007 64.8457 168.309C64.8994 165.63 65.3064 162.984 65.5899 160.319C65.6449 160.332 65.7024 160.336 65.7575 160.349Z" fill="black"/>
<path d="M82.5276 148.179C85.9117 150.905 89.0973 153.392 92.1378 156.046C92.5138 156.37 92.3681 157.839 91.9203 158.197C91.3736 158.626 89.9401 158.82 89.4099 158.459C86.3353 156.38 83.3655 154.157 80.4994 151.842C80.0034 151.436 79.7682 150.192 80.0628 149.649C80.3853 149.038 81.4507 148.777 82.5276 148.179Z" fill="black"/>
<path d="M69.3622 148.866C71.8072 145.696 74.0141 142.691 76.4391 139.844C76.7658 139.457 78.4519 139.568 79.0006 139.998C79.5187 140.409 79.7822 141.776 79.4302 142.316C77.6116 145.161 75.6462 147.939 73.535 150.596C73.1328 151.103 71.7421 151.36 71.057 151.109C70.3852 150.852 70.0331 149.802 69.3622 148.866Z" fill="black"/>
<path d="M101.998 124.846C102.727 124.291 103.244 123.696 103.931 123.407C106.887 122.172 109.881 121.021 112.868 119.847C114.207 119.323 115.428 119.428 116.081 120.825C116.739 122.245 115.837 122.991 114.536 123.503C111.613 124.65 108.737 125.894 105.772 126.925C104.997 127.193 103.864 127.057 103.07 126.727C102.572 126.521 102.399 125.6 101.998 124.846Z" fill="black"/>
<path d="M65.553 177.667C65.9339 177.441 66.6107 176.715 67.1733 176.798C67.9828 176.919 69.1346 177.505 69.3916 178.129C70.6922 181.231 71.839 184.39 72.8146 187.582C73.0069 188.233 72.4681 189.448 71.8576 189.756C71.2763 190.039 69.5603 189.667 69.3918 189.255C67.9434 185.705 66.7223 182.082 65.4498 178.479C65.3969 178.36 65.4687 178.208 65.553 177.667Z" fill="black"/>
<path d="M102.425 186.958C101.478 188.848 100.614 190.779 99.5625 192.623C98.9513 193.704 97.7934 194.155 96.5397 193.365C95.3668 192.625 95.422 191.674 95.9143 190.458C96.9233 188.022 97.6998 185.486 98.4078 182.945C98.757 181.694 98.886 180.39 100.736 180.594C102.54 180.797 102.788 182.034 102.647 183.388C102.53 184.546 102.369 185.694 102.23 186.847C102.302 186.886 102.363 186.922 102.425 186.958Z" fill="black"/>
<path d="M95.5707 127.911C95.9483 128.373 96.6855 128.891 96.7296 129.431C96.7824 130.08 96.457 131.039 95.9284 131.346C92.9105 133.127 89.8387 134.842 86.649 136.37C86.0299 136.665 84.5362 136.24 84.0056 135.688C83.6048 135.273 83.7552 133.688 84.2349 133.391C87.4041 131.466 90.7241 129.737 94.0269 127.983C94.3492 127.806 94.8776 127.934 95.5707 127.911Z" fill="black"/>
<path d="M91.9632 162.62C92.4392 162.29 92.9596 161.632 93.5488 161.605C94.2554 161.575 95.4078 161.917 95.6766 162.395C97.4703 165.627 99.1699 168.909 100.68 172.252C100.9 172.74 100.088 174.122 99.4989 174.245C98.7499 174.402 97.2818 173.92 96.9467 173.33C95.1951 170.311 93.6914 167.181 92.1389 164.061C91.9559 163.71 92.0294 163.261 91.9632 162.62Z" fill="black"/>
<path d="M48.3619 142.419C48.6965 142.818 49.4753 143.356 49.4802 143.866C49.483 144.576 49.1321 145.593 48.5412 145.917C45.5255 147.592 42.4435 149.157 39.2671 150.582C38.6394 150.864 37.2157 150.583 36.761 150.103C36.3088 149.612 36.2623 148.022 36.6542 147.798C40.0801 145.872 43.6347 144.136 47.1722 142.375C47.4006 142.25 47.7652 142.38 48.3619 142.419Z" fill="black"/>
<path d="M14.9219 161.096C15.2566 161.495 16.0354 162.033 16.0402 162.542C16.0431 163.253 15.6922 164.27 15.1012 164.593C12.0855 166.269 9.00356 167.834 5.82713 169.259C5.19942 169.541 3.77576 169.26 3.32108 168.779C2.86883 168.289 2.82234 166.698 3.21424 166.475C6.64012 164.549 10.1948 162.813 13.7323 161.052C13.9606 160.927 14.3252 161.057 14.9219 161.096Z" fill="black"/>
<path d="M31.9219 151.096C32.2566 151.495 33.0354 152.033 33.0402 152.542C33.0431 153.253 32.6922 154.27 32.1012 154.593C29.0855 156.269 26.0036 157.834 22.8271 159.258C22.1994 159.541 20.7758 159.26 20.3211 158.779C19.8688 158.289 19.8223 156.698 20.2142 156.475C23.6401 154.549 27.1948 152.813 30.7323 151.052C30.9606 150.927 31.3252 151.057 31.9219 151.096Z" fill="black"/>
<path d="M64.2744 141.07C65.5184 141.371 66.911 141.443 67.954 142.045C68.6995 142.48 69.4003 143.677 69.3226 144.432C69.2676 144.948 67.7865 145.724 67.0185 145.623C63.5406 145.163 60.0599 144.522 56.6399 143.726C55.8999 143.558 54.8569 142.426 54.8811 141.796C54.9077 141.156 56.0433 140.075 56.7268 140.092C59.2464 140.129 61.7829 140.531 64.3067 140.792C64.296 140.884 64.2852 140.977 64.2744 141.07Z" fill="black"/>
</svg>
